<svg xmlns="http://www.w3.org/2000/svg" width="67" height="67" viewBox="0 0 67 67">
    <g fill="#FFF" fill-rule="nonzero">
        <path d="M53.468.026h-33.79v13.228C14.086 9.52 7.742 7.11 1.293 6.514L0 6.396l.119 1.298c.923 10.09 6.225 19.915 14.099 27.065-.673 5.071 1.015 10.196 4.616 13.81.264.265.567.517.857.782v17.637H67V13.625L53.468.026zm.633 3.695l9.232 9.269h-9.232V3.72zm-42.864 7.468l-6.45 6.475C3.628 14.79 2.81 11.81 2.415 8.805c2.993.398 5.961 1.232 8.823 2.384zm-5.526 8.606l7.636-7.666c5.25 2.502 10.05 6.183 13.954 10.725.37.437.739.86 1.082 1.311.105.132.198.265.303.397a27.36 27.36 0 0 1 1.174 1.59s0 .012.013.012a39.494 39.494 0 0 1 2.414 3.88l.25.45c.33.61.646 1.218.937 1.854l-7.65 7.68c-.62-.291-1.227-.61-1.833-.94l-.462-.252a42.891 42.891 0 0 1-3.825-2.396c-.013-.014-.026-.027-.052-.027a43.737 43.737 0 0 1-1.57-1.165c-.132-.106-.277-.212-.409-.318-.448-.357-.87-.715-1.305-1.086C11.87 29.885 8.19 25.065 5.71 19.795zm26.391 5.813c-.092-.132-.171-.265-.264-.384a43.352 43.352 0 0 0-1.74-2.357c-.054-.066-.093-.132-.146-.198a14.242 14.242 0 0 1 10.525 4.17l.132.133c-2.255-.093-4.616.318-6.898 1.179-.04-.067-.08-.12-.119-.186a47.42 47.42 0 0 0-1.49-2.357zM16.196 36.466c.066.053.132.093.198.146.765.609 1.543 1.191 2.348 1.747.118.08.25.16.369.252.778.53 1.57 1.033 2.374 1.51.053.04.105.079.171.105-.87 2.291-1.266 4.675-1.187 6.939l-.132-.133c-2.782-2.807-4.26-6.647-4.14-10.566zm5.632 28.35V50.951l1.74 1.165-.62-2.675c-.593-2.529-.368-5.402.62-8.17.673.345 1.36.69 2.045 1.007l.673.304 9.76-9.798-.304-.675a49.235 49.235 0 0 0-1.002-2.053c2.756-.993 5.605-1.218 8.137-.622l2.665.622-1.517-2.277c-.594-.9-1.28-1.735-2.031-2.476-3.6-3.615-8.705-5.31-13.756-4.635a44.917 44.917 0 0 0-6.41-5.879V2.185h30.11v12.95h12.899v49.667h-43.01v.013z"/>
        <path d="M39.365 35.107l1.52 1.527-2.164 2.172-1.52-1.526zM35.042 39.454l1.52 1.526-2.163 2.172-1.52-1.526zM30.708 43.791l1.52 1.526-2.163 2.172-1.52-1.526zM39.372 43.796l1.52 1.526-2.164 2.172-1.52-1.526zM19.586 30.216c1.055 0 2.123-.41 2.928-1.218 1.609-1.615 1.609-4.25 0-5.879-1.61-1.615-4.234-1.615-5.856 0-1.61 1.615-1.61 4.25 0 5.879a4.16 4.16 0 0 0 2.928 1.218zm-1.398-5.561a1.993 1.993 0 0 1 1.41-.583 1.996 1.996 0 0 1 1.398 3.403 1.977 1.977 0 0 1-2.808 0 1.995 1.995 0 0 1 0-2.82zM26.022 5.429h21.511v2.158H26.022zM26.022 11.904h21.511v2.158H26.022zM26.022 59.413h34.41v2.158h-34.41zM44.315 54.01h16.13v2.158h-16.13z"/>
    </g>
</svg>
