<svg xmlns="http://www.w3.org/2000/svg" width="71" height="72" viewBox="0 0 71 72">
    <g fill="#FFF" fill-rule="nonzero">
        <path d="M40.685 27.02c-.113-.265-.241-.54-.38-.814a15.464 15.464 0 0 0-2.942-4.082 15.496 15.496 0 0 0-11.008-4.544c-5.956 0-11.301 3.305-13.949 8.622a15.373 15.373 0 0 0-1.618 6.888v1.753H12.7V33.09a13.486 13.486 0 0 1 1.417-6.04c2.324-4.667 7.014-7.567 12.24-7.567 3.646 0 7.076 1.416 9.656 3.986a13.564 13.564 0 0 1 2.584 3.584 13.484 13.484 0 0 1 1.416 6.037v1.753h1.91V33.09c0-1.378-.18-2.729-.533-4.036 3.015.275 5.384 2.807 5.384 5.882v5.531c0 3.604 2.943 6.535 6.56 6.535 3.617 0 6.56-2.931 6.56-6.535V37.71h4.971V34.91h1.094v-1.903h-1.094v-.984h1.094v-1.903h-1.094v-.955c0-3.448 1.174-6.749 3.306-9.294a12.042 12.042 0 0 0 2.806-7.72c0-3.273-1.295-6.336-3.646-8.624A12.038 12.038 0 0 0 58.583.101c-6.509.152-11.807 5.557-11.81 12.047a12.043 12.043 0 0 0 2.811 7.73c2.137 2.548 3.314 5.852 3.314 9.304v.939h-.982v1.903h.982v.984h-.982v1.903h.982v2.798h5.084v2.758c0 2.554-2.086 4.632-4.65 4.632-2.563 0-4.648-2.078-4.648-4.632v-5.531c0-4.307-3.518-7.812-7.841-7.812 0 0-.098.035-.158-.104zm10.366-8.361a10.138 10.138 0 0 1-2.367-6.51c.002-5.466 4.463-10.017 9.945-10.145 2.77-.067 5.386.96 7.366 2.886a10.057 10.057 0 0 1 3.07 7.263c0 2.373-.839 4.682-2.362 6.5-2.014 2.405-3.27 5.398-3.636 8.581h-1.62v-1.857h-1.91v1.857h-1.325v-1.857h-1.91v1.857h-1.61c-.367-3.181-1.626-6.172-3.641-8.575zm11.903 17.147h-8.146v-.895h8.146v.895zm0-2.798h-8.146v-.984h8.146v.984zm-8.146-2.887v-.939-.045h8.147l-.001.03v.954h-8.146zM25.444 41.679h1.91v2.87h-1.91zM25.4 2.985h1.91v9.942H25.4z"/>
        <path d="M43.271 8.63l-7.056 7.03-1.351-1.346 7.056-7.03zM9.439 8.63l1.35-1.346 7.057 7.03-1.35 1.345zM54.184 19.003l4.753-2.49 4.753 2.49-.908-5.273 3.845-3.734-5.314-.769-2.376-4.797-2.377 4.797-5.314.77 3.845 3.733-.907 5.273zm3.645-8.037l1.108-2.236 1.108 2.236 2.478.359-1.793 1.74.423 2.459-2.216-1.16-2.216 1.16.423-2.458-1.792-1.741 2.477-.359zM.442 62.714a26.075 26.075 0 0 0-.418 4.64v4.548h52.661v-4.611a26.11 26.11 0 0 0-.42-4.66 8.947 8.947 0 0 0-2.538-4.8 9.053 9.053 0 0 0-4.834-2.475l-11.683-2.4v-1.884a12.206 12.206 0 0 0 5.273-8.45 3.16 3.16 0 0 0 3.402-3.141 3.16 3.16 0 0 0-3.164-3.151c-.057 0-.114.003-.171.007a3.922 3.922 0 0 0-1.744-2.734c-1.442-.93-2.548-3.723-3.021-4.916a2.197 2.197 0 0 0-1.6-1.341 2.206 2.206 0 0 0-2.006.587c-4.623 4.562-11.094 5.626-13.662 5.873a2.64 2.64 0 0 0-2.4 2.525l-.039-.001a3.161 3.161 0 0 0-3.164 3.15c0 1.738 1.42 3.151 3.164 3.151.05 0 .1-.003.15-.006.483 3.533 2.488 6.59 5.336 8.49v1.847L7.83 55.356a9.078 9.078 0 0 0-5.215 2.878 8.975 8.975 0 0 0-2.16 4.404l-.013.076zM39.974 39.48c0 .688-.562 1.247-1.253 1.247-.042 0-.083-.006-.124-.01v-2.475c.041-.004.082-.01.124-.01.691 0 1.253.56 1.253 1.248zM26.387 58.576l2.158 1.547v3.135l-4.186-3.228 2.028-1.454zm-2.157 3.76l4.315 3.328v3.26l-4.315-3.327v-3.26zm0 5.668l2.588 1.995H24.23v-1.995zm6.225-6.511l2.755 1.975V54.9l1.923.395v14.705h-4.678v-8.506zm.845-1.74l-3.197-2.291 3.197-2v4.292zm-9.826 0v-4.28l3.143 2.026-3.143 2.255zm.846 1.739v8.507H17.66V55.292l1.902-.388v8.564l2.757-1.976zm22.236-4.264c.8.136 1.561.401 2.263.79.577.318 1.104.71 1.564 1.165a7.055 7.055 0 0 1 2.003 3.787c.258 1.422.389 2.875.389 4.32V70H37.043V55.685l7.48 1.537.033.005zM12.824 39.48c0-.688.563-1.248 1.254-1.248.012 0 .023.003.034.003v2.49c-.011 0-.022.003-.034.003-.692 0-1.254-.56-1.254-1.248zm3.199 1.492V36.44c0-.385.29-.703.677-.74 2.771-.265 9.763-1.422 14.823-6.415a.283.283 0 0 1 .203-.084c.026 0 .049.004.067.007a.288.288 0 0 1 .215.178c.585 1.478 1.804 4.554 3.76 5.815.567.365.92 1.038.92 1.754v4.019c0 5.675-4.636 10.293-10.333 10.293s-10.332-4.618-10.332-10.294zM26.355 53.17c1.76 0 3.432-.375 4.945-1.043v1.09l-4.982 3.113-4.844-3.123v-1.052a12.21 12.21 0 0 0 4.881 1.015zM1.935 67.354c0-1.436.13-2.884.388-4.308l.013-.076a7.072 7.072 0 0 1 1.702-3.468 7.159 7.159 0 0 1 4.128-2.273l7.585-1.547v14.317H1.935v-2.645z"/>
    </g>
</svg>
