<svg xmlns="http://www.w3.org/2000/svg" width="72" height="72" viewBox="0 0 72 72">
    <g fill="#FFF" fill-rule="nonzero">
        <path d="M49.263 16.62c4.18 0 7.58-3.386 7.58-7.551s-3.4-7.552-7.58-7.552-7.579 3.387-7.579 7.552c0 4.165 3.4 7.552 7.58 7.552zm0-12.586c2.787 0 5.053 2.258 5.053 5.035 0 2.776-2.266 5.034-5.053 5.034-.148 0-.285-.031-.43-.042 1.031-.923 1.693-2.247 1.693-3.733H48a2.52 2.52 0 0 1-2.097 2.474c-1.03-.923-1.692-2.247-1.692-3.733 0-2.777 2.266-5.035 5.052-5.035zM10.105 31.724c4.18 0 7.58-3.387 7.58-7.552 0-4.164-3.4-7.551-7.58-7.551s-7.579 3.387-7.579 7.551c0 4.165 3.4 7.552 7.58 7.552zm0-12.586c2.787 0 5.053 2.258 5.053 5.034 0 1.487-.662 2.81-1.693 3.733a2.52 2.52 0 0 1-2.097-2.474H8.842c0 1.486.662 2.81 1.693 3.733-.144.011-.282.043-.43.043-2.786 0-5.052-2.258-5.052-5.035 0-2.776 2.266-5.034 5.052-5.034z"/>
        <path d="M71.136 2.841L63.557.324a1.258 1.258 0 0 0-1.662 1.193V17.88H44.21c-.296 0-.583.104-.81.291l-7.58 6.293c-.132.112-.242.25-.32.404l-3.582 7.14-7.976 3.405-7.123-2.365a1.305 1.305 0 0 0-.399-.064H6.316C2.833 32.983 0 35.806 0 39.276V53.12a1.26 1.26 0 0 0 1.263 1.258h3.79v15.104H0V72H17.684a1.26 1.26 0 0 0 1.263-1.259v-6.293H36.632a1.26 1.26 0 0 0 1.263-1.258v-6.293h13.894a1.26 1.26 0 0 0 1.264-1.26v-6.292h17.684v-2.517H68.21v-10.07c0-3.47-2.834-6.292-6.316-6.292h-5.053V25.43h6.316c3.482 0 6.316-2.823 6.316-6.293v-7.552a1.26 1.26 0 0 0-1.263-1.258h-3.79V7.459l6.715-2.23a1.256 1.256 0 1 0 0-2.388zm-19.95 17.556l-.66 1.646-.66-1.646h1.32zM17.685 61.93a1.26 1.26 0 0 0-1.263 1.259v6.293h-2.526V54.379h6.316v7.552h-2.527zm5.053 0v-8.81a1.26 1.26 0 0 0-1.263-1.259h-8.842a1.26 1.26 0 0 0-1.264 1.259v16.362h-3.79V40.534H5.054v11.328H2.526V39.276c0-2.082 1.7-3.776 3.79-3.776h3.79v8.81h2.526V35.5h3.584l7.385 2.452c.293.1.614.083.897-.037l7.875-3.363.767 1.146.383.572-8.473 4.22-8.45-1.203a1.267 1.267 0 0 0-1.008.295 1.268 1.268 0 0 0-.434.952v6.294a1.26 1.26 0 0 0 1.263 1.258h6.316c2.09 0 3.79 1.694 3.79 3.776v10.069h-3.79zm13.895-7.552a1.26 1.26 0 0 0-1.264 1.259v6.293h-6.315V51.862c0-3.47-2.834-6.293-6.316-6.293h-5.053v-3.583l7.4 1.053c.255.037.513-.006.744-.12l10.105-5.035c.184-.092.33-.232.447-.394.01-.014.03-.019.04-.033l4.932-7.372 2.859-2.137V54.38h-7.58zm22.736-7.551h-6.315v-7.552h6.315v7.552zm7.58-27.69c0 2.082-1.7 3.776-3.79 3.776h-7.58a1.26 1.26 0 0 0-1.262 1.258v7.552a1.26 1.26 0 0 0 1.263 1.259h6.316c2.089 0 3.79 1.694 3.79 3.776v10.069h-3.79v-8.81a1.26 1.26 0 0 0-1.263-1.26h-8.843a1.26 1.26 0 0 0-1.263 1.26v16.361h-3.79V25.431c0-.477-.27-.912-.698-1.126a1.268 1.268 0 0 0-1.322.12L39.663 28.2a1.196 1.196 0 0 0-.293.308l-4.002 5.981-1.068-1.598 3.342-6.662 7.026-5.832h2.477l2.208 5.501a1.265 1.265 0 0 0 2.347 0l2.208-5.501h9.25a1.26 1.26 0 0 0 1.263-1.26v-6.292h2.526v6.293zM64.42 4.805v-1.54l2.322.77-2.322.77zM30.316 6.552h2.526v2.517h-2.526zM25.263 6.552h2.526v2.517h-2.526zM20.211 6.552h2.526v2.517h-2.526z"/>
    </g>
</svg>
