<svg xmlns="http://www.w3.org/2000/svg" width="64" height="73" viewBox="0 0 64 73">
    <g fill="#FFF" fill-rule="nonzero">
        <path d="M64 0l-6.823 5.135L50.315 21.2h-5.518l-2.166-4.711h1.415c2.59 0 4.695-2.113 4.695-4.711V7.067h2.348V0h-7.043v7.067h2.348v4.71c0 1.3-1.053 2.356-2.348 2.356h-2.499l-3-6.523 3.594-1.802L30.373.746l-2.766 9.714C27.532 4.68 22.828 0 17.05 0 11.225 0 6.486 4.755 6.486 10.6c0 3.532 1.783 6.845 4.695 8.804V21.2H8.338l-.183.955a26.563 26.563 0 0 0-.157 9.059L0 45.532l8.852 2.026V62.4H20.59V73h28.17V56.588a31.051 31.051 0 0 0 12.892-25.214l-.002-4.297c0-1.62-.151-3.272-.452-4.912l-.176-.965h-2.304L64 8.48V0zM47 3h2v2h-2V3zm15 4l-1-.8L62 5v2zM43 21h-4.732L36 16h4.697L43 21zm-7 0h-5v-2.5c0-1.379 1.009-2.5 2.249-2.5h.707L36 21zM32.202 4l4.49 1.972-1.06.545L39 14h-4.237l-2.752-6.207L31 8.311 32.202 4zm-1.614 7L32 14.088c-2.42.162-4.345 2.15-4.345 4.598V21H23v-1.765a10.453 10.453 0 0 0 4.442-6.67L30.588 11zm-16.587 6.504C11.534 16.018 10 13.263 10 10.313 10 5.73 13.59 2 18 2s8 3.73 8 8.313c0 2.95-1.534 5.706-4.001 7.192l-.57.342V21h-2.286v-7.344c1.327-.492 2.286-1.798 2.286-3.344 0-1.964-1.539-3.563-3.429-3.563s-3.429 1.599-3.429 3.563c0 1.546.96 2.852 2.286 3.344V21h-2.286v-3.153l-.57-.343zM17 11a1 1 0 1 1 2 0 1 1 0 0 1-2 0zm42.998 16.517l.002 4.29c.007 9.417-4.646 18.233-12.447 23.584l-.51.35V71H23.45V60.42H11.654V46.081L4 44.343l6.9-12.27-.069-.409A24.059 24.059 0 0 1 10.747 24H59.74a24.53 24.53 0 0 1 .258 3.517zM54 21l5.537-14L62 8.334 57.13 21H54z"/>
        <path d="M19.974 30.6c-1.82 0-3.3-1.615-3.3-3.6h-2.2c0 3.308 2.467 6 5.5 6s5.5-2.692 5.5-6h-2.2c0 1.985-1.48 3.6-3.3 3.6z"/>
    </g>
</svg>
