<?xml version="1.0" encoding="UTF-8"?>
<svg width="121px" height="123px" viewBox="0 0 121 123" version="1.1" xmlns="http://www.w3.org/2000/svg" xmlns:xlink="http://www.w3.org/1999/xlink">
    <!-- Generator: Sketch 55.1 (78136) - https://sketchapp.com -->

    <g id="Page-1" stroke="none" stroke-width="1" fill="none" fill-rule="evenodd">
        <g id="Thank-you" transform="translate(-660.000000, -201.000000)" fill="#009B76">
            <g id="Group-2" transform="translate(-1.000000, 1.000000)">
                <g id="noun_success_1594747" transform="translate(661.000000, 200.000000)">
                    <g id="Group">
                        <path d="M60.5265526,0.500513258 C27.161068,0.500513258 -9.35e-06,27.8003356 -9.35e-06,61.3362303 C-9.35e-06,94.8721112 27.1653071,122.118546 60.5265526,122.118546 C93.8877981,122.118546 121.00001,94.867827 121.00001,61.3362303 C121.00001,27.8045922 93.8920359,0.500513258 60.5265526,0.500513258 L60.5265526,0.500513258 Z M60.5265526,8.03448438 C89.8354243,8.03448438 113.504365,31.8733908 113.504365,61.3362303 C113.504365,90.7990146 89.839662,114.584589 60.5265526,114.584589 C31.2134419,114.584589 7.49563513,90.7948685 7.49563513,61.3362303 C7.49563513,31.8776474 31.217681,8.03448438 60.5265526,8.03448438 Z" id="Shape"></path>
                        <path d="M89.0254461,38.7943382 C88.0516228,38.8242456 87.1276601,39.2341322 86.4494001,39.9371188 L51.9237345,74.6891933 L34.5522072,57.1821472 C33.6111453,56.2086446 32.2217848,55.8192797 30.9153376,56.1629232 C29.6088905,56.5065668 28.5874,57.5300741 28.2414257,58.8421144 C27.8954514,60.1541547 28.2784986,61.5518198 29.2441119,62.5007225 L49.2680306,82.6803236 C49.971141,83.3886871 50.9257564,83.7867816 51.9212746,83.7867816 C52.9167929,83.7867816 53.8714083,83.3886871 54.5745186,82.6803236 L91.7542313,45.2572834 C92.8620664,44.1734462 93.194096,42.5171071 92.5902783,41.0866384 C91.9864607,39.6561697 90.5707154,38.7451419 89.0254461,38.7926798 L89.0254461,38.7943382 Z" id="Path"></path>
                    </g>
                </g>
            </g>
        </g>
    </g>
</svg>